<svg xmlns="http://www.w3.org/2000/svg" xmlns:xlink="http://www.w3.org/1999/xlink" width="1e3" height="1e3"><g clip-path="url(#SvgjsClipPath1003)"><rect width="1e3" height="1e3" fill="#fff"/><g transform="matrix(3.5,0,0,3.5,150,150)"><svg xmlns="http://www.w3.org/2000/svg" xmlns:xlink="http://www.w3.org/1999/xlink" width="200" height="200"><svg xmlns="http://www.w3.org/2000/svg" xmlns:xlink="http://www.w3.org/1999/xlink" viewBox="0 0 200 200"><rect width="200" height="200" fill="url('#gradient')"/><defs><linearGradient id="gradient" gradientTransform="rotate(45 0.5 0.5)"><stop offset="0" stop-color="#fff"/><stop offset="100%" stop-color="#fff"/></linearGradient><clipPath id="SvgjsClipPath1003"><rect width="1e3" height="1e3" x="0" y="0" rx="350" ry="350"/></clipPath></defs><g><g fill="#328c78" transform="matrix(5.345264727815064,0,0,5.345264727815064,24.257675046355402,138.00420779492055)" stroke="#226254" stroke-width=".4"><path d="M4.5-14.22V-2.64h5.97V0H1.07V-14.22H4.5zm7.41.0h4.51l3.17 9.89 3.16-9.89h4.52V0H23.83V-3.32L24.16-10.12 20.72.0H18.46L15.01-10.13l.33 6.81V0H11.91V-14.22z"/></g></g></svg></svg></g></g></svg>